<?xml version="1.0" encoding="utf-8" ?>
<svg xmlns="http://www.w3.org/2000/svg" xmlns:xlink="http://www.w3.org/1999/xlink" width="1023" height="1023">
	<path fill="#EF5453" d="M0 0L1024 0L1024 1024L0 1024L0 0Z"/>
	<path fill="#FEFEFE" d="M277.394 113.878C278.6 113.941 279.581 113.929 280.656 114.557C282.805 117.436 281.666 124.608 281.639 128.163C284.452 128.089 287.497 127.848 290.294 128.117C292.107 128.291 294.572 128.79 295.75 130.258L295.428 131.009C291.664 133.414 286.175 132.667 281.868 132.542C281.947 136.783 283.12 144.209 280.386 147.65L278.321 146.856C276.305 143.787 277.378 136.194 277.42 132.516C274.447 132.57 271.23 132.816 268.28 132.5C266.225 132.279 264.074 131.957 262.715 130.338L263.101 129.782C267.322 127.51 272.633 128.14 277.284 128.264C277.22 123.477 277.026 118.655 277.394 113.878Z"/>
	<path fill="#FEFEFE" d="M940.016 343.751C940.968 343.927 941.792 344.239 942.691 344.594C945.22 347.644 944.041 353.919 943.964 357.705C948.285 357.574 953.799 356.785 957.488 359.465L956.924 360.93L957.085 360.939C953.03 363.126 948.384 362.57 943.931 362.471C943.993 367.481 944.338 372.628 942.983 377.501C941.781 377.522 941.132 377.541 940.084 376.918C937.802 373.798 938.968 366.266 939.034 362.489C936.323 362.545 933.183 362.894 930.518 362.421C928.855 362.126 927.098 361.673 926.052 360.274L926.562 359.286C930.504 357.063 934.697 357.586 939.058 357.666C938.983 354.049 937.994 346.583 940.016 343.751Z"/>
	<path fill="#FEFEFE" d="M89.6204 305.922C91.2376 305.854 92.0313 305.66 93.4956 306.4C95.7546 309.874 94.494 316.908 94.4273 320.97C98.4328 320.882 103.799 320.157 107.454 322.032C108.472 322.554 108.589 322.738 108.958 323.75C108.868 323.874 108.794 324.01 108.69 324.122C105.847 327.154 98.2371 326.222 94.3667 326.113C94.4444 330.601 94.9227 335.701 93.5941 340.037C92.3246 339.865 91.3657 339.754 90.2073 339.167C88.8695 337.522 88.6 335.883 88.7269 333.788C88.8806 331.248 88.9134 328.715 88.9573 326.172C85.9987 326.199 82.7714 326.426 79.8409 326.062C77.9154 325.823 75.8891 325.175 74.6649 323.666L75.1453 322.681C79.5797 320.312 84.3882 320.899 89.2434 321.011C89.268 315.981 89.2099 310.939 89.6204 305.922Z"/>
	<path fill="#FEFEFE" d="M647.103 68.033C649.4 67.8538 651.817 67.7822 654.015 68.59Q654.562 68.7943 655.087 69.0513Q655.611 69.3083 656.108 69.6156Q656.605 69.9228 657.069 70.2772Q657.534 70.6317 657.961 71.03Q658.388 71.4282 658.774 71.8665Q659.161 72.3047 659.502 72.7788Q659.843 73.2528 660.136 73.758Q660.43 74.2632 660.672 74.7947Q660.927 75.3552 661.123 75.939Q661.319 76.5229 661.453 77.1238Q661.588 77.7248 661.66 78.3365Q661.731 78.9482 661.739 79.564Q661.747 80.1798 661.691 80.7931Q661.635 81.4064 661.516 82.0106Q661.397 82.6149 661.217 83.2036Q661.036 83.7923 660.795 84.3591C659.156 88.1427 656.091 90.0056 652.406 91.4465C650.55 91.5475 648.637 91.6094 646.83 91.0948Q646.229 90.9261 645.649 90.6958Q645.069 90.4654 644.516 90.176Q643.963 89.8866 643.443 89.5412Q642.923 89.1957 642.442 88.7981Q641.961 88.4005 641.524 87.9549Q641.087 87.5094 640.698 87.0208Q640.31 86.5322 639.974 86.0058Q639.639 85.4794 639.36 84.921Q639.088 84.3756 638.875 83.8048Q638.661 83.234 638.508 82.644Q638.355 82.054 638.265 81.4513Q638.175 80.8487 638.148 80.2398Q638.121 79.631 638.157 79.0227Q638.194 78.4144 638.294 77.8132Q638.393 77.212 638.555 76.6245Q638.718 76.037 638.94 75.4696C640.468 71.6388 643.4 69.5373 647.103 68.033Z"/>
	<path fill="#EF5453" d="M648.279 73.0641C649.555 73.1501 650.969 73.3042 652.16 73.8098C653.691 74.4594 655.011 76.0237 655.634 77.5364C656.284 79.1114 656.277 80.7131 655.606 82.2786C654.72 84.3424 653.229 85.2345 651.249 86.0985C650.126 86.1048 648.88 86.1678 647.796 85.8451C646.279 85.3937 645.126 84.1785 644.377 82.8323C643.445 81.1579 643.298 79.2862 643.916 77.4797C644.69 75.216 646.17 74.0288 648.279 73.0641Z"/>
	<path fill="#FEFEFE" d="M900.732 274.58C903.203 274.476 905.349 274.443 907.642 275.482Q908.221 275.747 908.77 276.068Q909.319 276.389 909.834 276.763Q910.349 277.136 910.824 277.56Q911.299 277.983 911.729 278.451Q912.16 278.92 912.542 279.429Q912.924 279.938 913.253 280.482Q913.583 281.026 913.856 281.601Q914.13 282.175 914.345 282.774Q914.567 283.387 914.727 284.019Q914.887 284.65 914.984 285.295Q915.08 285.94 915.111 286.591Q915.143 287.242 915.109 287.893Q915.076 288.544 914.977 289.188Q914.879 289.833 914.717 290.464Q914.555 291.095 914.33 291.707Q914.106 292.319 913.822 292.906C912.023 296.54 909.067 298.296 905.32 299.447C902.925 299.5 900.905 299.341 898.677 298.394C895.435 297.017 892.761 294.452 891.52 291.122C890.331 287.932 890.469 284.231 891.992 281.177C893.871 277.409 896.863 275.778 900.732 274.58Z"/>
	<path fill="#EF5453" d="M900.937 280.067C901.874 280.021 902.833 279.964 903.769 280.035C905.651 280.179 907.391 281.062 908.532 282.574C909.723 284.151 910.044 286.06 909.617 287.972C908.975 290.842 907.394 292.409 904.971 293.91C903.906 293.957 902.742 294.057 901.694 293.835C899.997 293.475 898.337 292.169 897.438 290.704C896.422 289.046 896.21 287.077 896.684 285.208C897.329 282.664 898.79 281.416 900.937 280.067Z"/>
	<path fill="#FEFEFE" d="M92.2913 734.051C94.9506 733.835 97.6186 733.883 100.063 735.059Q100.633 735.326 101.172 735.652Q101.711 735.977 102.214 736.356Q102.716 736.735 103.177 737.164Q103.637 737.594 104.05 738.069Q104.464 738.543 104.826 739.058Q105.188 739.573 105.494 740.123Q105.801 740.673 106.049 741.252Q106.297 741.831 106.483 742.432Q106.682 743.074 106.818 743.731Q106.954 744.389 107.026 745.057Q107.097 745.725 107.104 746.397Q107.11 747.068 107.052 747.737Q106.993 748.406 106.87 749.067Q106.746 749.727 106.56 750.372Q106.373 751.018 106.125 751.642Q105.877 752.266 105.569 752.863C103.716 756.435 100.903 758.357 97.1578 759.558C94.8061 759.464 92.7089 759.255 90.5102 758.337C87.0445 756.891 84.1374 754.198 82.7568 750.671Q82.5315 750.097 82.3681 749.502Q82.2046 748.908 82.1047 748.299Q82.0049 747.691 81.9697 747.075Q81.9345 746.46 81.9645 745.844Q81.9944 745.228 82.0891 744.619Q82.1838 744.009 82.3422 743.413Q82.5006 742.817 82.721 742.241Q82.9413 741.666 83.2212 741.116C85.1509 737.329 88.4049 735.394 92.2913 734.051Z"/>
	<path fill="#EF5453" d="M91.9337 739.535C93.2919 739.427 94.8226 739.21 96.1613 739.5C97.9745 739.893 99.7136 741.196 100.704 742.747C101.766 744.408 101.955 746.399 101.417 748.275C100.663 750.901 98.881 752.047 96.6465 753.393C95.7489 753.512 94.8508 753.65 93.9425 753.582C92.0348 753.44 90.1461 752.483 88.9607 750.97C87.7288 749.398 87.3909 747.347 87.7137 745.404C88.1755 742.624 89.798 741.186 91.9337 739.535Z"/>
	<path fill="#FEFEFE" d="M931.793 679.03C933.892 678.897 935.824 679.217 937.769 680.025C941.287 681.485 943.955 684.223 945.25 687.815Q945.488 688.472 945.658 689.149Q945.829 689.827 945.929 690.518Q946.03 691.21 946.059 691.908Q946.089 692.606 946.048 693.303Q946.006 694.001 945.894 694.69Q945.782 695.38 945.601 696.055Q945.419 696.729 945.17 697.382Q944.92 698.035 944.606 698.659C942.551 702.648 939.674 704.276 935.556 705.664C933.294 705.734 931.035 705.738 928.912 704.862C925.352 703.393 922.549 700.574 921.252 696.935Q921.032 696.327 920.875 695.7Q920.719 695.073 920.626 694.434Q920.533 693.794 920.506 693.148Q920.478 692.503 920.516 691.857Q920.555 691.212 920.658 690.574Q920.761 689.936 920.929 689.312Q921.096 688.688 921.326 688.084Q921.555 687.48 921.845 686.902C923.957 682.679 927.511 680.587 931.793 679.03Z"/>
	<path fill="#EF5453" d="M931.505 685.054C932.487 685.054 933.519 685.018 934.488 685.191C936.467 685.544 938.57 687.144 939.544 688.881C940.458 690.511 940.558 692.506 939.966 694.262C939.095 696.848 937.168 698.057 934.882 699.3C934.101 699.341 933.286 699.383 932.51 699.273C930.595 699 928.492 697.908 927.336 696.335C926.208 694.801 925.994 692.906 926.372 691.073C926.983 688.109 929.09 686.589 931.505 685.054Z"/>
	<path fill="#0F7D8E" d="M908.249 861.539C911.677 853.512 916.262 845.88 920.146 838.052C925.271 827.724 933.699 808.103 940.253 799.461C937.829 812.537 933.466 825.563 929.947 838.392C926.178 852.135 922.991 866.083 919.03 879.762C915.834 873.432 912.19 867.432 908.249 861.539Z"/>
	<path fill="#FEFEFE" d="M876.836 759.298C881.778 762.424 893.094 774.603 897.273 779.474C891.874 787.08 883.948 794.543 876.874 800.599C872.34 798.066 859.295 784.327 855.73 779.972C860.743 772.5 869.69 764.753 876.836 759.298Z"/>
	<path fill="#EF5453" d="M876.862 767.328C880.436 769.559 885.323 776.053 889.747 779.332C885.439 783.704 881.186 788.085 877.105 792.672C872.595 789.416 868.768 783.653 864.019 779.897L876.862 767.328Z"/>
	<path fill="#FEFEFE" d="M499.434 46.4625C507.178 53.011 514.282 61.1778 521.241 68.5721C513.688 75.5275 506.62 82.8232 499.493 90.2063C496.245 88.5509 481.575 72.1108 477.55 68.2469C485.017 61.1586 491.878 53.4639 499.434 46.4625Z"/>
	<path fill="#EF5453" d="M499.608 56.5287C503.314 60.4686 506.892 64.5235 511.212 67.8061C507.267 72.1612 503.164 76.3934 499.141 80.6775C495.061 77.5775 491.416 72.3596 487.609 68.7275C491.529 64.5656 495.473 60.4793 499.608 56.5287Z"/>
	<path fill="#1A95A6" d="M864.737 837.787C874.411 831.079 885.175 825.062 895.548 819.487C899.7 817.256 940.539 796.515 941.33 796.753L940.253 799.461C933.699 808.103 925.271 827.724 920.146 838.052C916.262 845.88 911.677 853.512 908.249 861.539C904.875 856.68 902.046 850.609 897.744 846.546C895.011 843.967 870.307 839.214 864.737 837.787Z"/>
	<path fill="#0F7D8E" d="M66.4382 149.091C78.8457 145.65 90.3358 140.105 102.355 135.59L166.883 111.323C180.284 106.305 193.658 101.023 207.31 96.7177C206.57 98.3651 205.906 98.8246 204.412 99.8611C199.407 103.333 193.906 106.307 188.654 109.394Q174.317 117.856 159.887 126.159C145.917 134.271 132.07 143.435 118.968 152.884C113.83 156.59 107.414 160.44 103.129 165.117C90.7962 160.023 78.9198 153.812 66.4382 149.091Z"/>
	<path fill="#0F7D8E" d="M143.854 190.421C146.922 186.567 150.48 182.966 153.639 179.14Q172.283 156.269 191.279 133.688C195.584 128.489 211.069 107.869 214.762 105.33Q193.908 166.711 171.436 227.519L143.854 190.421Z"/>
	<path fill="#1A95A6" d="M207.31 96.7177C211.517 94.8653 215.838 93.0263 220.24 91.693C218.398 96.1207 216.919 101.079 214.762 105.33C211.069 107.869 195.584 128.489 191.279 133.688Q172.283 156.269 153.639 179.14C150.48 182.966 146.922 186.567 143.854 190.421C141.62 187.115 139.572 183.812 136.522 181.189C130.297 175.836 111.583 168.87 103.129 165.117C107.414 160.44 113.83 156.59 118.968 152.884C132.07 143.435 145.917 134.271 159.887 126.159Q174.317 117.856 188.654 109.394C193.906 106.307 199.407 103.333 204.412 99.8611C205.906 98.8246 206.57 98.3651 207.31 96.7177Z"/>
	<path fill="#FEFEFE" d="M196.012 900.126C189.755 906.89 183.549 913.248 175.562 917.999C158.683 928.039 138.961 929.549 120.181 924.791C101.502 920.058 86.5793 908.133 76.91 891.585Q76.0026 890.008 75.1742 888.389Q74.3459 886.769 73.5988 885.111Q72.8516 883.452 72.1875 881.759Q71.5233 880.065 70.9437 878.341Q70.3642 876.617 69.8706 874.866Q69.3771 873.115 68.9708 871.342Q68.5645 869.569 68.2465 867.778Q67.9284 865.987 67.6994 864.182Q67.4704 862.377 67.3309 860.564Q67.1915 858.75 67.1419 856.932Q67.0924 855.113 67.1329 853.295Q67.1734 851.476 67.3038 849.662Q67.4343 847.847 67.6544 846.041Q67.8744 844.236 68.1836 842.443Q68.4927 840.65 68.8902 838.875Q69.2877 837.1 69.7725 835.347C74.8345 816.315 86.7239 801.006 103.811 791.201C120.437 781.659 142.031 779.846 160.383 784.892C180.982 790.556 193.574 802.349 203.889 820.432C201.655 826.159 199.431 831.753 198.294 837.823C197.484 842.149 197.359 846.931 196.029 851.108C195.03 851.402 194.272 851.409 193.236 851.358L193.071 851.847L194.472 852.605C194.073 853.242 193.782 853.462 193.193 853.906C193.059 855.313 192.918 855.689 193.791 856.885C194.174 857.411 194.871 857.962 195.337 858.391C196.535 864.341 195.56 871.218 195.608 877.315C195.844 878.247 196.032 878.859 195.945 879.827Q196.108 889.976 196.012 900.126Z"/>
	<path fill="#2F5BB5" d="M86.2173 829.589C86.8006 828.365 87.4659 827.167 88.093 825.963L94.3734 828.63L92.3036 832.589L86.2173 829.589Z"/>
	<path fill="#2F5BB5" d="M93.5688 816.309L98.9325 821.684C97.3715 823.953 95.6686 826.198 94.3734 828.63L88.093 825.963C89.8194 822.669 91.5901 819.459 93.5688 816.309Z"/>
	<path fill="#2F5BB5" d="M188.033 875.455L195.608 877.315C195.844 878.247 196.032 878.859 195.945 879.827L195.529 879.531C193.794 880.793 192.091 885.18 191.014 887.22C188.841 885.528 186.648 883.992 184.317 882.524C185.657 880.22 186.835 877.834 188.033 875.455Z"/>
	<path fill="#2F5BB5" d="M173.275 895.588Q175.707 898.229 178.187 900.826C175.402 903.049 171.798 904.769 168.71 906.577C168.262 906.783 167.714 906.935 167.246 907.097C165.671 905.75 165.146 903.398 164.461 901.495C167.554 899.669 170.471 897.837 173.275 895.588Z"/>
	<path fill="#2F5BB5" d="M118.845 799.955C120.663 801.54 120.928 804.882 121.423 807.142C118.836 808.247 115.357 810.409 112.632 810.65C111.1 808.8 109.69 806.837 108.245 804.918C111.827 803.367 115.33 801.65 118.845 799.955Z"/>
	<path fill="#2F5BB5" d="M135.68 797.25Q142.948 796.93 150.149 797.969L148.787 804.262C144.597 804.047 140.581 803.552 136.353 803.585L135.68 797.25Z"/>
	<path fill="#142D74" d="M146.209 906.206C147.095 905.987 147.79 906.003 148.697 906.068C150.057 907.394 149.871 910.842 150.006 912.689C147.137 913.052 144.152 913.04 141.258 913.156C139.698 913.239 138.434 913.394 136.97 912.717C135.924 911.142 136.442 908.757 136.566 906.942L146.209 906.206Z"/>
	<path fill="#2F5BB5" d="M81.0642 846.162C83.3842 846.598 85.6853 847.343 87.9639 847.967C87.4276 851.953 87.5436 856.036 87.5178 860.054L81.0318 860.423C80.9462 855.673 81.0362 850.913 81.0642 846.162Z"/>
	<path fill="#142D74" d="M167.42 802.412C171.015 805.399 174.945 807.724 178.391 810.961L173.761 814.881L173.518 815.153C171.699 815.323 166.213 810.496 164.237 809.166L167.42 802.412Z"/>
	<path fill="#2F5BB5" d="M91.4443 875.148C92.9487 876.193 96.3977 883.253 97.5907 885.3C96.0265 886.916 94.4645 888.367 92.6844 889.743C89.9828 885.515 87.1423 881.184 85.1181 876.587L91.4443 875.148Z"/>
	<path fill="#2F5BB5" d="M108.415 896.765C112.406 899.18 116.582 901.283 120.713 903.447C119.704 905.392 118.616 907.299 117.558 909.218C113.1 907.627 108.9 904.488 105.109 901.723L108.415 896.765Z"/>
	<path fill="#2F5BB5" d="M188.866 822.341C189.013 822.373 189.166 822.387 189.307 822.437C191.86 823.337 195.298 830.902 196.704 833.432L190.828 835.988L189.729 836.319C187.08 835.172 185.113 828.785 183.942 826.079L188.866 822.341Z"/>
	<path fill="#EF5453" d="M135.552 817.674C144.777 817.125 153.269 818.3 161.094 823.553C169.656 829.301 175.843 838.005 177.702 848.205C179.511 858.129 177.331 868.847 171.46 877.095C165.094 886.039 155.164 891.084 144.507 892.856C135.288 894.074 124.572 891.414 117.078 885.911C108.667 879.735 103.598 870.188 102.161 859.94C100.748 849.86 103.366 840.059 109.531 831.963C116.2 823.206 124.816 819.103 135.552 817.674Z"/>
	<path fill="#FEFEFE" d="M136.449 821.675C144.266 820.784 152.616 823.151 159.083 827.548C166.734 832.751 172.25 840.773 173.862 849.925C175.394 858.626 172.929 867.372 167.879 874.517C161.983 882.857 153.954 886.644 144.119 888.389C135.688 889.058 127.157 887.468 120.165 882.527Q119.478 882.043 118.816 881.525Q118.155 881.007 117.519 880.456Q116.884 879.906 116.278 879.324Q115.671 878.743 115.094 878.131Q114.517 877.52 113.972 876.881Q113.426 876.242 112.913 875.576Q112.401 874.91 111.922 874.219Q111.443 873.529 110.999 872.815Q110.555 872.101 110.148 871.366Q109.74 870.631 109.37 869.877Q109 869.122 108.668 868.35Q108.336 867.578 108.043 866.79Q107.75 866.003 107.497 865.201Q107.244 864.4 107.031 863.587Q106.819 862.774 106.647 861.951Q106.475 861.128 106.345 860.298C104.915 851.236 106.826 842.327 112.289 834.9C118.245 826.804 126.763 823.142 136.449 821.675Z"/>
	<path fill="#FEFEFE" d="M818.639 72.2325C832.524 64.9911 848.608 59.7824 864.504 61.5443C865.08 62.323 865.297 62.9726 865.56 63.9003C868.276 64.9197 879.542 65.7281 884.012 66.8487Q885.081 67.1165 886.142 67.4142Q887.203 67.712 888.256 68.0394Q889.308 68.3668 890.351 68.7236Q891.394 69.0804 892.426 69.4663Q893.459 69.8523 894.48 70.267Q895.501 70.6818 896.51 71.1251Q897.519 71.5683 898.516 72.0398Q899.512 72.5112 900.495 73.0104Q901.477 73.5096 902.445 74.0362Q903.414 74.5628 904.367 75.1163Q905.32 75.6699 906.257 76.25Q907.194 76.8301 908.115 77.4362Q909.035 78.0424 909.938 78.6742Q910.841 79.3059 911.727 79.9628Q912.612 80.6197 913.478 81.3011Q914.344 81.9826 915.191 82.6881Q916.038 83.3936 916.864 84.1226Q917.691 84.8516 918.497 85.6035Q919.303 86.3554 920.087 87.1296Q920.872 87.9039 921.634 88.6998Q922.396 89.4958 923.136 90.3128Q923.876 91.1299 924.592 91.9674Q925.309 92.8048 926.002 93.6621Q926.694 94.5194 927.363 95.3957Q928.031 96.2721 928.675 97.1669Q929.318 98.0617 929.937 98.9742Q930.555 99.8867 931.147 100.816Q931.739 101.746 932.305 102.691Q932.871 103.637 933.41 104.598Q933.95 105.56 934.462 106.536Q934.974 107.512 935.458 108.502Q935.943 109.492 936.399 110.495C941.255 121.25 945.791 141.337 942.257 152.837C937.208 178.688 929.253 197.794 906.469 213.052C894.022 221.388 880.172 225.264 865.344 226.374L859.995 226.84C859.847 226.849 859.699 226.859 859.551 226.866C841.479 227.738 820.263 220.619 806.724 208.578C788.352 192.654 777.652 173.022 775.842 148.793C774.64 140 775.84 130.497 778.274 122.019C784.599 99.9983 798.776 83.3359 818.639 72.2325Z"/>
	<path fill="#F8A12C" d="M806.724 208.578C816.039 198.283 826.302 189.001 836.119 179.201C844.207 171.127 851.814 162.59 859.874 154.515L859.856 200.547C859.841 209.216 859.447 218.194 859.995 226.84C859.847 226.849 859.699 226.859 859.551 226.866C841.479 227.738 820.263 220.619 806.724 208.578Z"/>
	<path fill="#332F52" d="M865.317 152.897L942.257 152.837C937.208 178.688 929.253 197.794 906.469 213.052C894.022 221.388 880.172 225.264 865.344 226.374L865.317 152.897Z"/>
	<path fill="#F8A12C" d="M865.542 70.0116C885.596 72.2588 903.446 77.7503 917.706 92.8382C932.149 108.119 938.032 126.709 937.445 147.457L865.58 147.623L865.542 70.0116Z"/>
	<path fill="#2F5BB5" d="M775.842 148.793C774.64 140 775.84 130.497 778.274 122.019C784.599 99.9983 798.776 83.3359 818.639 72.2325C832.305 86.2413 846.436 100.071 859.33 114.794L859.413 148.817C831.576 148.859 803.664 148.407 775.842 148.793Z"/>
	<path fill="#FEFEFE" d="M815.92 82.8967L817.128 83.2248C817.236 83.5798 817.505 83.9223 817.453 84.2898C817.28 85.5149 803.108 95.8873 801.038 98.2517C794.619 105.58 789.478 114.601 786.812 123.992C785.859 127.349 785.433 131.582 783.883 134.666C783.743 134.943 783.595 135.215 783.451 135.489L781.6 134.312C780.892 132.728 781.218 131.158 781.663 129.541C787.204 109.404 797.375 93.2717 815.92 82.8967Z"/>
	<path fill="#FEFEFE" d="M128.417 432.539C131.21 415.705 141.71 390.179 148.621 374.051Q150.597 369.5 152.685 364.998Q154.772 360.496 156.97 356.047Q159.167 351.598 161.473 347.205Q163.779 342.811 166.192 338.475Q168.605 334.139 171.124 329.864Q173.642 325.589 176.265 321.377Q178.888 317.164 181.614 313.018Q184.339 308.871 187.166 304.793Q189.992 300.715 192.918 296.707Q195.844 292.699 198.867 288.765Q201.89 284.83 205.009 280.971Q208.128 277.111 211.341 273.33Q214.554 269.548 217.858 265.847Q221.163 262.145 224.557 258.526Q227.952 254.906 231.434 251.371Q234.916 247.836 238.484 244.388Q242.052 240.94 245.704 237.58Q249.355 234.22 253.088 230.951Q256.821 227.682 260.633 224.505Q264.445 221.329 268.334 218.247Q272.223 215.165 276.187 212.18Q280.15 209.194 284.185 206.307Q288.221 203.419 292.326 200.632Q296.431 197.844 300.603 195.158Q304.776 192.473 309.013 189.89Q313.25 187.307 317.549 184.83Q321.848 182.352 326.207 179.98Q330.565 177.609 334.981 175.345Q339.396 173.081 343.866 170.926Q348.336 168.771 352.857 166.727Q357.379 164.683 361.949 162.75Q366.519 160.817 371.135 158.997C377.104 156.614 416.536 142.107 420.221 143.69C412.738 147.544 405.32 151.367 398.234 155.926C358.331 181.603 329.99 219.583 315.616 264.635Q313.195 272.081 311.433 279.709Q309.67 287.337 308.58 295.09C307.967 298.939 308.012 304.351 306.727 307.854C306.123 313.688 305.535 319.431 305.466 325.301L333.446 326.441L333.506 395.086C321.609 400.846 314.552 408.472 308.817 420.258Q307.462 423.81 306.56 427.503Q305.659 431.195 305.225 434.972C304.419 448.338 308.245 460.863 317.218 470.962C325.616 480.416 336.897 486.283 349.569 486.98Q350.957 487.053 352.346 487.034Q352.62 497.858 352.484 508.684L352.477 522.94L352.629 652.562L352.587 689.048C352.594 698.213 352.821 707.467 352.017 716.606C349.655 717.734 347.309 718.894 344.88 719.871C341.123 721.728 337.38 723.591 333.532 725.253C322.623 730.634 311.407 735.237 300.29 740.153C292.403 743.641 284.654 747.443 276.807 751.019C268.184 754.948 259.037 758.381 251.057 763.52C240.79 770.131 231.484 778.906 223.563 788.186C216.474 783.287 209.812 775.094 203.954 768.748C173.187 735.417 148.918 692.29 134.525 649.358C131.205 639.455 128.714 629.284 126.104 619.177C100.516 608.919 81.086 591.037 69.9126 565.68Q69.4206 564.551 68.9564 563.411Q68.4923 562.271 68.0562 561.119Q67.6202 559.968 67.2126 558.806Q66.8049 557.644 66.4259 556.473Q66.047 555.302 65.6968 554.121Q65.3467 552.941 65.0257 551.752Q64.7046 550.564 64.4128 549.368Q64.1211 548.171 63.8587 546.969Q63.5964 545.766 63.3637 544.557Q63.131 543.348 62.928 542.133Q62.7251 540.919 62.552 539.7Q62.3789 538.481 62.2357 537.258Q62.0926 536.035 61.9795 534.809Q61.8665 533.583 61.7835 532.355Q61.7006 531.126 61.6479 529.896Q61.5951 528.666 61.5725 527.435Q61.55 526.204 61.5577 524.973Q61.5654 523.742 61.6033 522.511Q61.6412 521.281 61.7092 520.052Q61.7773 518.822 61.8756 517.595Q61.9738 516.368 62.1022 515.143Q62.2305 513.919 62.3889 512.698Q62.5473 511.477 62.7355 510.26Q62.9238 509.043 63.1419 507.832Q63.36 506.62 63.6078 505.414Q63.8556 504.208 64.1329 503.008Q64.4102 501.809 64.7168 500.616Q65.0235 499.424 65.3593 498.24Q65.6952 497.055 66.06 495.879Q66.4248 494.703 66.8184 493.537Q67.212 492.37 67.6341 491.214Q68.0562 490.057 68.5065 488.911Q69.3029 486.891 70.1898 484.909Q71.0768 482.926 72.0524 480.986Q73.0279 479.046 74.0902 477.152Q75.1525 475.258 76.2993 473.414Q77.4461 471.57 78.675 469.779Q79.904 467.989 81.2126 466.256Q82.5212 464.523 83.9068 462.851Q85.2924 461.179 86.7522 459.571Q88.2119 457.963 89.7428 456.423Q91.2738 454.883 92.8727 453.413Q94.4717 451.944 96.1354 450.548Q97.7991 449.153 99.5242 447.834Q101.249 446.515 103.032 445.275Q104.815 444.035 106.652 442.877Q108.49 441.72 110.377 440.646Q112.265 439.572 114.199 438.585C118.755 436.231 123.711 434.579 128.417 432.539Z"/>
	<path fill="#3575BE" d="M189.837 351.028L209.485 350.986C209.255 356.578 209.306 362.192 209.27 367.789C202.877 368.109 196.381 367.927 189.975 367.967L189.837 351.028Z"/>
	<path fill="#EF5453" d="M303.167 648.497C305.009 648.252 307.096 648.253 308.874 648.838C311.72 649.775 314.252 651.965 315.502 654.7C316.639 657.189 316.802 660.06 315.755 662.608C314.473 665.729 312.089 667.289 309.071 668.496C306.95 668.851 304.842 669.079 302.741 668.461C300.219 667.72 297.981 666.046 296.723 663.721Q296.488 663.279 296.297 662.816Q296.106 662.353 295.961 661.873Q295.817 661.393 295.72 660.902Q295.623 660.411 295.575 659.912Q295.527 659.414 295.528 658.913Q295.529 658.412 295.579 657.913Q295.629 657.415 295.727 656.924Q295.826 656.433 295.972 655.954C297.143 652.125 299.842 650.346 303.167 648.497Z"/>
	<path fill="#E4DFDB" d="M265.592 294.889Q287.088 294.66 308.58 295.09C307.967 298.939 308.012 304.351 306.727 307.854L306.464 307.182C304.116 305.656 271.037 306.471 265.511 306.468L265.592 294.889Z"/>
	<path fill="#E4DFDB" d="M244.022 420.205C251.921 420.447 259.882 420.167 267.787 420.164Q288.302 420.346 308.817 420.258Q307.462 423.81 306.56 427.503Q305.659 431.195 305.225 434.972L304.687 433.358C301.017 432.092 252.348 432.959 244.352 432.966C244.35 428.713 244.16 424.456 244.022 420.205Z"/>
	<path fill="#6992D4" d="M226.458 354.521L304.365 354.547L304.356 366.581C278.4 366.625 252.437 366.4 226.483 366.711L226.458 354.521Z"/>
	<path fill="#EF5453" d="M191.346 653.564Q235.914 654.141 280.481 653.542L280.48 665.51Q235.919 665.357 191.36 665.779L191.346 653.564Z"/>
	<path fill="#E4DFDB" d="M277.587 508.807C302.519 509.41 327.539 508.577 352.484 508.684L352.477 522.94C350.128 522.053 284.323 522.971 277.639 522.968L277.587 508.807Z"/>
	<path fill="#E4DFDB" d="M239.236 708.496L344.15 708.562C344.06 711.333 343.123 717.751 344.88 719.871C341.123 721.728 337.38 723.591 333.532 725.253C332.708 724.461 332.499 724.355 331.293 724.214C325.955 723.588 314.586 724.326 308.28 724.22Q273.637 723.531 238.987 723.571L239.236 708.496Z"/>
	<path fill="#332F52" d="M128.417 432.539C155.316 425.868 183.037 427.023 207.292 441.53C229.603 454.875 247 477.299 253.257 502.676C257.926 521.617 255.383 539.023 250.888 557.623C257.283 563.73 269.946 591.911 275.22 601.512C263.139 594.765 250.835 587.877 238.324 581.967C217.998 606.904 198.8 620.449 166 623.908Q163.481 624.153 160.952 624.262Q158.424 624.371 155.893 624.345Q153.362 624.318 150.836 624.155Q148.31 623.993 145.797 623.695Q143.283 623.397 140.79 622.964Q138.296 622.531 135.829 621.966Q133.362 621.4 130.929 620.702Q128.496 620.004 126.104 619.177C100.516 608.919 81.086 591.037 69.9126 565.68Q69.4206 564.551 68.9564 563.411Q68.4923 562.271 68.0562 561.119Q67.6202 559.968 67.2126 558.806Q66.8049 557.644 66.4259 556.473Q66.047 555.302 65.6968 554.121Q65.3467 552.941 65.0257 551.752Q64.7046 550.564 64.4128 549.368Q64.1211 548.171 63.8587 546.969Q63.5964 545.766 63.3637 544.557Q63.131 543.348 62.928 542.133Q62.7251 540.919 62.552 539.7Q62.3789 538.481 62.2357 537.258Q62.0926 536.035 61.9795 534.809Q61.8665 533.583 61.7835 532.355Q61.7006 531.126 61.6479 529.896Q61.5951 528.666 61.5725 527.435Q61.55 526.204 61.5577 524.973Q61.5654 523.742 61.6033 522.511Q61.6412 521.281 61.7092 520.052Q61.7773 518.822 61.8756 517.595Q61.9738 516.368 62.1022 515.143Q62.2305 513.919 62.3889 512.698Q62.5473 511.477 62.7355 510.26Q62.9238 509.043 63.1419 507.832Q63.36 506.62 63.6078 505.414Q63.8556 504.208 64.1329 503.008Q64.4102 501.809 64.7168 500.616Q65.0235 499.424 65.3593 498.24Q65.6952 497.055 66.06 495.879Q66.4248 494.703 66.8184 493.537Q67.212 492.37 67.6341 491.214Q68.0562 490.057 68.5065 488.911Q69.3029 486.891 70.1898 484.909Q71.0768 482.926 72.0524 480.986Q73.0279 479.046 74.0902 477.152Q75.1525 475.258 76.2993 473.414Q77.4461 471.57 78.675 469.779Q79.904 467.989 81.2126 466.256Q82.5212 464.523 83.9068 462.851Q85.2924 461.179 86.7522 459.571Q88.2119 457.963 89.7428 456.423Q91.2738 454.883 92.8727 453.413Q94.4717 451.944 96.1354 450.548Q97.7991 449.153 99.5242 447.834Q101.249 446.515 103.032 445.275Q104.815 444.035 106.652 442.877Q108.49 441.72 110.377 440.646Q112.265 439.572 114.199 438.585C118.755 436.231 123.711 434.579 128.417 432.539Z"/>
	<path fill="#FEFEFE" d="M193.503 508.536L194.39 508.491C200.583 508.188 205.201 509.19 209.885 513.6C214.353 517.807 217.752 524.26 217.816 530.488C217.837 532.438 217.394 534.553 215.926 535.945C212.425 539.268 189.707 537.559 183.748 537.449Q184.059 538.254 184.379 539.056C186.04 543.141 188.672 546.427 192.888 548.056C198.582 550.256 204.561 548.746 209.956 546.501C210.519 546.55 211.271 546.723 211.779 546.947C213.039 547.502 213.67 548.811 214.15 550.022C214.545 551.02 214.627 551.989 214.086 552.939C212.889 555.042 209.992 556.083 207.816 556.823C201.145 559.092 193.116 559.042 186.799 555.756C181.08 552.78 176.986 547.871 175.026 541.733C172.819 534.822 173.289 527.669 176.798 521.262C180.51 514.485 186.229 510.606 193.503 508.536Z"/>
	<path fill="#332F52" d="M192.942 518.069C195.931 517.893 198.377 517.767 201.173 519.096C204.109 520.491 206.844 522.507 207.958 525.65C207.768 527.104 207.706 527.25 206.759 528.368C204.688 529.449 202.244 529.099 199.965 529.048C194.525 529.048 189.079 529.184 183.64 529.263C185.765 524.102 187.92 520.727 192.942 518.069Z"/>
	<path fill="#FEFEFE" d="M110.725 493.585C114.32 493.314 117.741 493.348 121.338 493.591C126.274 500.261 132.274 516.538 136.552 524.912C139.369 518.791 142.421 512.736 145.096 506.557C146.459 503.412 147.468 499.459 149.239 496.568C149.886 495.512 151.263 494.592 152.362 494.056C155.019 492.76 158.423 492.141 161.255 493.227C163.065 493.921 164.302 495.332 164.969 497.13C166.193 500.429 165.848 545.718 165.501 551.966C165.42 553.427 165.093 554.474 164.469 555.79C163.539 556.636 162.87 556.969 161.648 557.15C160.23 557.361 158.82 557.205 157.702 556.238C156.369 555.086 155.787 553.233 155.494 551.552C154.742 547.232 155.197 542.301 155.221 537.916L155.281 515.377L155.507 506.656C152.759 513.367 144.995 534.136 139.707 537.676C138.469 538.506 137.014 538.843 135.554 538.398C129.845 536.657 119.78 512.871 117.114 506.922C117.473 513.23 118.635 552.254 115.935 555.615C114.979 556.805 113.539 557.517 112.004 557.475C110.689 557.439 109.376 556.765 108.566 555.723C107.465 554.309 107.428 552.816 107.312 551.093C106.497 539.077 107.394 526.447 107.477 514.373C107.512 509.265 106.678 502.909 107.546 497.946C107.926 495.776 108.948 494.775 110.725 493.585Z"/>
	<path fill="#FEFEFE" d="M550.875 134.253C560.457 133.433 586.999 139.069 597.463 141.606C664.819 157.931 717.268 182.424 770.443 227.204C785.45 239.842 798.627 253.905 811.362 268.775C849.061 312.796 873.341 357.288 890.108 412.8C894.813 428.381 899.972 446.286 901.181 462.518C901.196 462.718 901.203 462.919 901.214 463.12L942.707 462.929C949.119 462.893 956.124 462.223 962.456 463.047C964.425 463.303 965.847 463.585 967.328 464.991C972.977 470.359 971.796 477.061 971.769 484.204L971.484 550.708C971.48 559.985 972.384 575.774 971.166 584.421C970.741 587.444 969.501 590.186 967.345 592.366C965.563 594.168 962.863 594.809 960.435 595.172C954.354 596.08 947.686 595.567 941.539 595.569C927.919 595.572 914.185 595.169 900.578 595.573C897.134 611.799 893.842 628.151 888.9 644.003C873.512 693.368 841.864 753.538 803.86 789.089C796.653 780.914 789.28 773.51 780.151 767.469C764.785 757.302 746.06 750.651 729.257 743.106C709.5 734.234 690.083 724.69 670.444 715.57C669.793 691.503 670.347 667.365 670.306 643.291L670.113 527.276C669.906 521.598 669.994 515.781 670.314 510.107C670.452 502.778 671.028 495.05 670.151 487.776C677.919 487.504 685.266 485.893 692.338 482.614Q693.436 482.118 694.508 481.569Q695.58 481.019 696.623 480.417Q697.666 479.815 698.678 479.162Q699.691 478.509 700.669 477.807Q701.648 477.104 702.59 476.354Q703.532 475.604 704.436 474.808Q705.341 474.012 706.204 473.172Q707.068 472.332 707.888 471.451Q708.709 470.569 709.485 469.648Q710.261 468.727 710.991 467.768Q711.72 466.809 712.401 465.816Q713.082 464.822 713.713 463.796Q714.343 462.77 714.923 461.714Q715.502 460.657 716.028 459.574Q716.554 458.49 717.025 457.382Q717.497 456.273 717.913 455.143C719.069 451.484 719.734 447.784 720.416 444.013C720.415 427.252 717.069 416.022 705.572 403.615C702.136 400.831 697.487 398.721 694.497 395.53C693.239 394.186 693.493 393.439 693.435 391.705C692.327 368.453 693.363 343.932 693.401 320.534L693.46 312.08L693.521 281.451C693.53 273.635 693.873 265.652 692.591 257.919Q691.894 253.841 690.628 249.903Q689.361 245.965 687.55 242.246C680.47 227.869 667.287 218.224 653.456 210.847C649.681 208.834 644.876 207.493 641.699 204.633C637.066 200.461 631.887 190.202 626.961 184.636Q625.039 182.487 623.049 180.4Q621.058 178.314 619.002 176.292Q616.947 174.271 614.827 172.316Q612.707 170.361 610.526 168.475Q608.345 166.589 606.105 164.774Q603.865 162.959 601.567 161.216Q599.27 159.474 596.918 157.806Q594.566 156.138 592.162 154.546Q589.758 152.954 587.304 151.439Q584.85 149.925 582.349 148.49Q579.848 147.056 577.302 145.702Q574.757 144.348 572.169 143.076Q569.581 141.804 566.954 140.615Q564.327 139.427 561.663 138.323Q559 137.22 556.302 136.202Q553.604 135.184 550.875 134.253Z"/>
	<path fill="#2F5BB5" d="M798.948 440.537C799.946 440.643 800.806 440.829 801.756 441.156C804.308 442.032 806.588 443.827 807.721 446.306C808.841 448.757 808.723 451.573 807.67 454.023C806.253 457.318 803.877 458.485 800.709 459.79C798.839 459.477 797.122 458.947 795.471 457.988Q795.036 457.732 794.627 457.436Q794.218 457.139 793.84 456.804Q793.462 456.47 793.118 456.1Q792.774 455.73 792.468 455.329Q792.161 454.928 791.895 454.499Q791.628 454.07 791.405 453.617Q791.181 453.164 791.003 452.692Q790.824 452.219 790.692 451.732Q790.58 451.313 790.51 450.885Q790.441 450.458 790.414 450.025Q790.388 449.592 790.405 449.159Q790.422 448.726 790.482 448.297Q790.542 447.868 790.645 447.447Q790.748 447.025 790.892 446.617Q791.037 446.208 791.221 445.816Q791.406 445.424 791.629 445.052C793.371 442.201 795.842 441.262 798.948 440.537Z"/>
	<path fill="#EF5453" d="M802.611 387.622C804.316 387.832 805.97 388.138 807.518 388.923Q807.912 389.121 808.285 389.357Q808.657 389.594 809.005 389.865Q809.352 390.137 809.671 390.442Q809.99 390.746 810.278 391.081Q810.566 391.415 810.819 391.777Q811.072 392.138 811.288 392.522Q811.504 392.907 811.682 393.311Q811.859 393.715 811.996 394.134C812.794 396.629 812.369 399.295 811.039 401.526C809.327 404.399 806.805 405.669 803.698 406.562C802.036 406.453 800.427 406.222 798.933 405.444Q798.519 405.226 798.129 404.966Q797.74 404.706 797.379 404.408Q797.018 404.11 796.69 403.776Q796.362 403.443 796.069 403.077Q795.777 402.712 795.523 402.318Q795.27 401.925 795.058 401.507Q794.847 401.09 794.679 400.653Q794.511 400.216 794.389 399.764Q794.263 399.294 794.184 398.813Q794.106 398.332 794.077 397.846Q794.047 397.36 794.067 396.874Q794.086 396.387 794.155 395.905Q794.223 395.423 794.339 394.95Q794.456 394.477 794.62 394.018Q794.783 393.56 794.992 393.12Q795.201 392.68 795.453 392.263C797.135 389.477 799.537 388.293 802.611 387.622Z"/>
	<path fill="#3575BE" d="M802.486 645.116C804.105 644.97 805.881 644.709 807.48 645.108C810.015 645.74 812.301 647.672 813.482 649.981Q813.708 650.423 813.888 650.886Q814.068 651.349 814.199 651.827Q814.331 652.306 814.413 652.796Q814.495 653.286 814.526 653.781Q814.558 654.276 814.539 654.773Q814.52 655.269 814.45 655.76Q814.381 656.252 814.261 656.734Q814.142 657.216 813.974 657.683C812.788 661.059 810.643 662.485 807.501 663.884C804.887 664.038 802.508 663.843 800.224 662.433C797.094 660.5 796.121 657.478 795.247 654.131C795.593 652.91 795.931 651.651 796.397 650.469C797.56 647.518 799.739 646.374 802.486 645.116Z"/>
	<path fill="#E4DFDB" d="M693.46 312.08Q725.691 311.799 757.919 312.271L757.791 320.643C743.218 320.353 728.647 320.721 714.074 320.774C707.273 320.799 700.156 321.193 693.401 320.534L693.46 312.08Z"/>
	<path fill="#E4DFDB" d="M692.409 705.97C719.845 705.93 747.505 705.205 774.904 706.55L775.053 713.424L692.363 713.525L692.409 705.97Z"/>
	<path fill="#A1B7E1" d="M720.416 444.013Q747.509 444.197 774.602 444.016L774.598 455.213L736.772 455.445C730.605 455.454 724.01 455.898 717.913 455.143C719.069 451.484 719.734 447.784 720.416 444.013Z"/>
	<path fill="#E4DFDB" d="M670.113 527.276C669.906 521.598 669.994 515.781 670.314 510.107L670.867 511.243C674.251 512.386 754.246 511.549 763.962 511.474L763.953 519.907L703.096 519.814C692.277 519.774 681.359 519.398 670.553 519.723C670.524 522.21 670.694 524.849 670.113 527.276Z"/>
	<path fill="#EF5453" d="M693.435 391.705L779.941 391.513L779.781 402.998Q754.588 403.333 729.393 403.376C721.723 403.408 713.144 402.67 705.572 403.615C702.136 400.831 697.487 398.721 694.497 395.53C693.239 394.186 693.493 393.439 693.435 391.705Z"/>
	<path fill="#3575BE" d="M775.577 648.256L784.41 648.14L784.437 660.738C776.525 661.155 768.406 660.776 760.474 660.744L714.441 660.565L705.282 660.471L705.325 648.482C728.672 647.823 752.206 648.393 775.577 648.256Z"/>
	<path fill="#EF5453" d="M704.613 552.03Q747.345 552.209 790.077 551.915Q789.903 579.202 790.069 606.488C779.657 605.745 769.031 606.058 758.588 606.007Q731.672 605.837 704.757 605.967Q705.011 578.998 704.613 552.03Z"/>
	<path fill="#FEFEFE" d="M763.689 571.072C764.833 571.169 766.027 571.246 767.131 571.576C769.515 572.287 771.716 574.083 772.76 576.354Q772.912 576.692 773.031 577.044Q773.15 577.395 773.234 577.756Q773.318 578.118 773.366 578.485Q773.415 578.853 773.428 579.224Q773.441 579.594 773.418 579.965Q773.395 580.335 773.336 580.701Q773.277 581.067 773.183 581.426Q773.089 581.785 772.961 582.133C771.805 585.219 769.38 586.652 766.501 587.897C764.604 587.925 762.709 587.658 761.042 586.707C758.96 585.521 757.328 583.595 756.702 581.262Q756.599 580.889 756.534 580.508Q756.469 580.127 756.442 579.741Q756.416 579.355 756.427 578.968Q756.439 578.581 756.49 578.198Q756.54 577.814 756.629 577.438Q756.718 577.061 756.843 576.695Q756.969 576.33 757.13 575.978Q757.292 575.627 757.488 575.293C758.906 572.845 761.075 571.826 763.689 571.072Z"/>
	<path fill="#332F52" d="M901.214 463.12L942.707 462.929C949.119 462.893 956.124 462.223 962.456 463.047C964.425 463.303 965.847 463.585 967.328 464.991C972.977 470.359 971.796 477.061 971.769 484.204L971.484 550.708C971.48 559.985 972.384 575.774 971.166 584.421C970.741 587.444 969.501 590.186 967.345 592.366C965.563 594.168 962.863 594.809 960.435 595.172C954.354 596.08 947.686 595.567 941.539 595.569C927.919 595.572 914.185 595.169 900.578 595.573L879.952 595.553C875.734 599.882 872.454 605.24 868.826 610.068C862.206 618.879 854.992 627.557 849.345 637.027C849.247 623.359 849.523 609.676 849.523 596.005C842.682 595.329 832.983 597.332 827.4 592.508C824.631 590.115 824.745 586.772 824.59 583.363C824.226 575.345 824.488 567.221 824.498 559.195L824.569 515.248L824.594 488.367C824.605 482.887 824.288 477.08 825.025 471.645C825.327 469.416 826.441 467.279 828.002 465.673C829.684 463.943 831.715 463.528 834.044 463.24C841.518 462.316 849.827 463.009 857.379 463.035L901.214 463.12Z"/>
	<path fill="#FEFEFE" d="M868.457 498.246Q896.961 498.007 925.465 498.09C930.523 498.108 937.293 497.008 942.091 498.336C942.571 499.345 942.385 499.958 942.184 501.028C940.238 502.434 928.808 501.675 925.751 501.673L875.573 501.689C868.741 501.684 861.523 502.205 854.731 501.815C853.401 501.738 852.718 501.58 851.696 500.734C851.772 499.551 851.712 499.493 852.502 498.629C857.714 497.93 863.2 498.249 868.457 498.246Z"/>
	<path fill="#FEFEFE" d="M851.977 521.665C871.678 521.417 891.416 521.648 911.121 521.635C920.694 521.629 932.19 520.664 941.515 521.88C942.246 523.109 942.031 523.982 942.033 525.377L884.272 525.297C873.902 525.28 862.854 526.089 852.577 524.96C851.753 523.899 852.004 522.974 851.977 521.665Z"/>
	<path fill="#FEFEFE" d="M851.669 544.676C869.828 544.206 888.087 544.562 906.259 544.531C917.944 544.511 930.188 543.749 941.788 544.726C942.582 545.884 942.422 546.925 942.516 548.3C912.533 548.619 882.327 548.952 852.354 548.284C851.578 547.123 851.749 546.046 851.669 544.676Z"/>
	<path fill="#090F35" d="M420.221 143.69C462.911 123.314 505.616 120.729 550.875 134.253Q553.604 135.184 556.302 136.202Q559 137.22 561.663 138.323Q564.327 139.427 566.954 140.615Q569.581 141.804 572.169 143.076Q574.757 144.348 577.302 145.702Q579.848 147.056 582.349 148.49Q584.85 149.925 587.304 151.44Q589.758 152.954 592.162 154.546Q594.566 156.138 596.918 157.806Q599.27 159.474 601.567 161.216Q603.865 162.959 606.105 164.774Q608.345 166.589 610.526 168.475Q612.707 170.361 614.827 172.316Q616.947 174.271 619.002 176.292Q621.058 178.314 623.048 180.4Q625.039 182.487 626.961 184.636C631.887 190.202 637.066 200.461 641.699 204.633C644.876 207.493 649.681 208.834 653.456 210.847C667.287 218.224 680.47 227.869 687.55 242.246Q689.361 245.965 690.628 249.903Q691.894 253.841 692.591 257.919C693.873 265.652 693.53 273.635 693.521 281.451L693.46 312.08L693.401 320.534C693.363 343.932 692.327 368.453 693.435 391.705C693.493 393.439 693.239 394.186 694.497 395.53C697.487 398.721 702.136 400.831 705.572 403.615C717.069 416.022 720.415 427.252 720.416 444.013C719.734 447.784 719.069 451.484 717.913 455.143Q717.497 456.273 717.025 457.382Q716.554 458.49 716.028 459.574Q715.502 460.657 714.923 461.714Q714.344 462.77 713.713 463.796Q713.082 464.822 712.401 465.816Q711.72 466.809 710.991 467.768Q710.261 468.727 709.485 469.648Q708.709 470.569 707.888 471.451Q707.068 472.332 706.204 473.172Q705.341 474.012 704.437 474.808Q703.532 475.604 702.59 476.354Q701.648 477.104 700.669 477.807Q699.691 478.509 698.678 479.162Q697.666 479.815 696.623 480.417Q695.58 481.019 694.508 481.569Q693.436 482.118 692.338 482.614C685.266 485.893 677.919 487.504 670.151 487.776C671.028 495.05 670.452 502.778 670.314 510.107C669.994 515.781 669.906 521.598 670.113 527.276L670.306 643.291C670.347 667.365 669.793 691.503 670.444 715.57C690.083 724.69 709.5 734.234 729.257 743.106C746.06 750.651 764.785 757.302 780.151 767.469C789.28 773.51 796.653 780.914 803.86 789.089C813.72 801.894 821.834 815.398 826.171 831.107C832.419 853.737 830.481 879.04 830.521 902.366L830.534 975.537L850.701 975.529C850.73 978.517 850.699 981.518 850.792 984.504L442.049 984.563L264.398 984.612C232.671 984.623 200.717 985.646 169.017 984.552L169.001 975.457L195.615 975.49C196.028 950.372 195.563 925.237 196.012 900.126Q196.108 889.976 195.945 879.827C196.032 878.859 195.844 878.247 195.608 877.315C195.56 871.218 196.535 864.341 195.337 858.391C194.871 857.962 194.174 857.411 193.791 856.885C192.918 855.689 193.059 855.313 193.193 853.906C193.782 853.462 194.073 853.242 194.472 852.605L193.071 851.847L193.236 851.358C194.272 851.409 195.03 851.402 196.029 851.108C197.359 846.931 197.484 842.149 198.294 837.823C199.431 831.753 201.655 826.159 203.889 820.432C206.314 811.186 217.247 796.106 223.563 788.186C231.484 778.906 240.79 770.131 251.057 763.52C259.037 758.381 268.184 754.948 276.807 751.019C284.654 747.443 292.403 743.641 300.29 740.153C311.407 735.237 322.623 730.634 333.532 725.253C337.38 723.591 341.123 721.728 344.88 719.871C347.309 718.894 349.655 717.734 352.017 716.606C352.821 707.467 352.594 698.213 352.587 689.048L352.629 652.562L352.477 522.94L352.484 508.684Q352.62 497.858 352.346 487.034Q350.957 487.053 349.569 486.98C336.897 486.283 325.616 480.416 317.218 470.962C308.245 460.863 304.419 448.338 305.225 434.972Q305.659 431.195 306.56 427.503Q307.462 423.81 308.817 420.258C314.552 408.472 321.609 400.846 333.506 395.086L333.446 326.441L305.466 325.301C305.535 319.431 306.123 313.688 306.727 307.854C308.012 304.351 307.967 298.939 308.58 295.09Q309.67 287.337 311.433 279.709Q313.195 272.081 315.616 264.635C329.99 219.583 358.331 181.603 398.234 155.926C405.32 151.367 412.738 147.544 420.221 143.69Z"/>
	<path fill="#FECDA3" d="M393.825 284.425C393.856 284.848 393.898 285.06 393.772 285.514C390.361 297.72 374.883 309.449 364.03 314.559C364.244 312.83 371.673 307.129 373.261 305.715C380.734 299.065 387.518 292.205 393.825 284.425Z"/>
	<path fill="#6992D4" d="M640.688 719.915C642.059 717.775 643.519 715.653 644.732 713.419C666.546 724.045 688.363 734.887 710.426 744.971L744.931 760.557C753.22 764.293 761.851 767.833 769.61 772.601C790.024 785.146 806.969 805.42 814.882 828.076C817.11 834.453 818.772 841.324 819.729 848.022C817.673 845.08 817.175 840.285 815.805 836.841C811.715 826.558 805.644 815.993 798.547 807.483C792.917 800.732 785.973 794.45 778.644 789.592C767.31 782.079 753.961 776.742 741.706 770.817Q708.882 754.682 676.247 738.166C664.736 732.397 652.148 727.158 641.289 720.299L640.688 719.915Z"/>
	<path fill="#E0997D" d="M444.951 619.656C453.912 624.083 462.832 628.306 472.407 631.285C499.073 639.58 529.769 638.771 556.092 629.818C564.023 627.121 571.596 623.682 579.097 619.978C578.465 631.26 578.352 642.488 578.413 653.783C576.951 648.655 577.844 641.391 577.888 636.025C572.468 642.773 566.902 649.168 560.669 655.184C547.145 668.235 529.457 677.195 510.304 676.755C481.697 676.098 463.795 658.101 445.426 638.788C445.078 632.418 445.047 626.034 444.951 619.656Z"/>
	<path fill="#142D74" d="M430.312 688.97C430.842 689.405 430.732 689.204 430.978 689.785C432.554 693.497 434.042 697.161 435.904 700.75C445.189 718.646 462.414 736.642 480.139 746.009C484.906 748.528 489.842 750.181 494.956 751.817C490.23 755.457 485.27 758.791 480.61 762.52C470.434 770.662 460.619 779.627 450.968 788.391L443.548 795.706C438.427 788.267 434.546 779.815 429.926 772.038C417.202 750.615 404.763 729.037 391.823 707.739C404.448 701.075 417.76 695.798 430.312 688.97Z"/>
	<path fill="#142D74" d="M592.626 687.35C596.951 690.057 601.874 692.147 606.485 694.325C617.155 699.365 628.196 704.064 638.384 710.04C630.281 720.186 623.719 732.485 616.656 743.41C605.439 760.763 593.507 777.879 581.496 794.692L578.221 791.83C569.516 784.313 560.43 777.166 551.576 769.817C544.376 763.841 537.089 757.12 529.308 751.958C541.669 748.532 553.115 744.08 563.182 735.916C577.5 724.303 590.687 706.135 592.626 687.35Z"/>
	<path fill="#FECDA3" d="M577.888 636.025C577.844 641.391 576.951 648.655 578.413 653.783Q578.534 658.113 579.068 662.411Q579.603 666.709 580.545 670.937Q581.488 675.164 582.831 679.282Q584.173 683.4 585.903 687.371Q584.353 692.524 582.506 697.578C575.758 715.64 560.482 732.105 542.846 740.001C526.645 747.254 507.479 749.267 490.734 742.753C467.678 733.785 447.89 710.828 438.142 688.599C445.472 673.494 445.59 655.187 445.426 638.788C463.795 658.101 481.697 676.098 510.304 676.755C529.457 677.195 547.145 668.235 560.669 655.184C566.902 649.168 572.468 642.773 577.888 636.025Z"/>
	<path fill="#CF0E27" d="M586.623 615.864C622.843 590.412 644.979 560.499 659.285 518.67C660.775 514.312 662.361 509.929 663.649 505.508C664.942 501.069 666.162 491.526 668.304 488.11L670.151 487.776C671.028 495.05 670.452 502.778 670.314 510.107C669.994 515.781 669.906 521.598 670.113 527.276L670.306 643.291C670.347 667.365 669.793 691.503 670.444 715.57C643.792 702.38 616.322 690.951 589.614 677.915C583.66 657.786 584.359 636.502 586.623 615.864Z"/>
	<path fill="#CF0E27" d="M352.346 487.034C353.65 487.008 354.419 486.724 355.497 487.533C366.045 530.19 382.455 569.347 415.853 599.238C422.513 605.198 429.74 610.366 436.982 615.584C437.802 634.211 440.438 661.214 433.852 678.372C429.278 681.365 424.116 683.563 419.195 685.923C407.135 691.707 394.898 696.9 382.684 702.328C372.398 706.899 362.471 712.435 352.017 716.606C352.821 707.467 352.594 698.213 352.587 689.048L352.629 652.562L352.477 522.94L352.484 508.684Q352.62 497.858 352.346 487.034Z"/>
	<path fill="#FECDA3" d="M430.696 326.161C483.366 326.808 542.998 316.571 591.551 295.702Q603.248 290.709 614.194 284.234C618.875 281.425 623.649 277.268 628.762 275.405C630.307 274.842 630.874 275.299 632.28 276.016C642.316 280.668 651.95 286.36 661.575 291.803L661.505 398.556C676.606 397.691 688.918 398.482 700.749 409.065C708.529 416.025 713.014 426.149 713.479 436.533C713.986 447.83 710.03 458.396 702.378 466.691C693.949 475.829 683.275 479.937 670.964 480.4C667.853 480.517 664.737 480.434 661.626 480.345C658.731 518.998 630.49 570.949 601.35 596.026C574.007 619.556 538.089 632.856 501.864 629.967C462.258 626.808 428.253 605.74 403.082 575.829C383.004 551.971 364.05 510.626 362.245 479.272C352.018 481.661 341.238 480.804 332.145 475.19C322.656 469.332 315.443 458.946 312.983 448.102C310.604 437.612 312.179 426.813 317.967 417.702Q318.604 416.705 319.29 415.741Q319.976 414.776 320.709 413.847Q321.443 412.918 322.221 412.027Q322.999 411.136 323.821 410.284Q324.643 409.433 325.506 408.623Q326.369 407.813 327.271 407.048Q328.173 406.282 329.113 405.562Q330.052 404.842 331.026 404.17Q332 403.497 333.006 402.874Q334.012 402.251 335.048 401.679Q336.083 401.107 337.146 400.586Q338.209 400.066 339.297 399.6Q340.384 399.133 341.494 398.721Q342.603 398.309 343.732 397.953Q344.86 397.597 346.005 397.297Q347.15 396.997 348.308 396.755C352.989 395.774 357.753 395.457 362.528 395.509L362.529 325.319C395.484 323.226 426.55 317.135 454.69 298.712C461.429 294.299 467.655 289.092 473.937 284.062C462.349 303.005 443.095 315.86 423.613 325.688L430.696 326.161Z"/>
	<path fill="#090F35" d="M338.463 452.867C340.476 454.29 346.469 457.055 347.02 459.241C345.448 459.795 343.947 459.333 342.488 458.667C340.228 457.634 337.96 455.963 336.089 454.341L337.594 454.198L338.463 452.867Z"/>
	<path fill="#0B080C" d="M688.591 456.375C693.132 451.44 696.78 446.013 696.484 438.99C696.266 433.803 693.844 428.637 689.904 425.235C686.527 422.318 681.215 420.524 676.745 420.851C673.628 421.078 664.051 426.08 662.378 425.372C662.379 424.485 662.193 424.491 662.881 423.801C666.309 420.36 675.297 418.187 679.906 418.523C685.351 418.919 690.21 421.501 693.708 425.677Q694.052 426.083 694.375 426.505Q694.698 426.927 695 427.365Q695.302 427.802 695.582 428.254Q695.862 428.706 696.119 429.172Q696.376 429.637 696.61 430.114Q696.844 430.592 697.054 431.08Q697.264 431.569 697.45 432.067Q697.635 432.565 697.796 433.072Q697.957 433.579 698.092 434.093Q698.228 434.607 698.337 435.127Q698.447 435.647 698.531 436.172Q698.615 436.697 698.673 437.226Q698.731 437.754 698.763 438.285Q698.795 438.816 698.8 439.347Q698.806 439.879 698.785 440.41Q698.764 440.941 698.717 441.471C698.179 447.115 695.537 452.838 691.429 456.733L688.591 456.375Z"/>
	<path fill="#0B080C" d="M336.089 454.341C332.702 450.928 329.63 446.292 328.788 441.505C327.9 436.454 329.481 430.812 332.489 426.722Q332.792 426.315 333.114 425.924Q333.437 425.532 333.778 425.157Q334.119 424.782 334.479 424.425Q334.838 424.067 335.215 423.727Q335.591 423.388 335.984 423.067Q336.377 422.746 336.785 422.446Q337.193 422.145 337.616 421.864Q338.038 421.584 338.474 421.324Q338.91 421.065 339.358 420.828Q339.806 420.59 340.265 420.375Q340.724 420.16 341.193 419.968Q341.663 419.775 342.141 419.607Q342.619 419.438 343.105 419.292Q343.591 419.147 344.083 419.026Q344.575 418.905 345.073 418.809Q345.571 418.712 346.073 418.64C351.387 417.889 356.747 418.929 361.04 422.193C361.43 423.379 361.588 423.489 361.162 424.639C359.315 424.825 354.566 421.349 351.183 421.112C346.003 420.75 340.563 422.173 336.683 425.742C333.376 428.784 331.623 432.952 331.429 437.412C331.147 443.878 334.224 448.356 338.463 452.867L337.594 454.198L336.089 454.341Z"/>
	<path fill="#E0997D" d="M691.429 456.733Q691.14 457.322 690.763 457.859Q690.386 458.396 689.929 458.867Q689.472 459.338 688.947 459.732Q688.421 460.126 687.841 460.432C683.328 462.869 676.592 462.71 671.803 461.178C669.478 460.435 666.249 458.908 665.272 456.467C664.772 455.216 664.93 454.225 665.496 453.018C666.141 451.641 667.667 450.386 669.116 450.027C672.352 449.225 685.044 454.177 688.114 456.072C688.274 456.171 688.432 456.274 688.591 456.375L691.429 456.733Z"/>
	<path fill="#DC8547" d="M458.538 523.846C459.537 524.252 459.185 524.033 459.965 524.609C470.111 532.097 482.46 536.98 494.767 539.526C519.772 544.7 543.124 538.334 564.074 524.481C562.871 525.889 561.485 527.132 560.142 528.404Q558.473 529.934 556.748 531.4C542.58 543.443 524.62 549.934 505.975 548.352Q504.271 548.196 502.577 547.958Q500.883 547.72 499.202 547.4Q497.521 547.081 495.858 546.681Q494.194 546.281 492.552 545.801Q490.909 545.322 489.292 544.763Q487.675 544.205 486.086 543.57Q484.498 542.935 482.942 542.223Q481.386 541.512 479.866 540.727Q478.346 539.942 476.865 539.084Q475.385 538.227 473.947 537.299Q472.51 536.371 471.119 535.375Q469.728 534.379 468.386 533.317Q467.044 532.255 465.756 531.13Q464.467 530.005 463.234 528.819Q462.001 527.633 460.826 526.389Q459.651 525.145 458.538 523.846Z"/>
	<path fill="#0B080C" d="M584.358 382.115C587.799 381.979 591.026 382.21 594.167 383.747C598.67 385.949 601.741 389.922 603.316 394.63C604.872 399.281 604.824 404.226 602.438 408.588C599.608 413.761 595.07 416.086 589.659 417.704C585.828 418.189 582.197 417.781 578.726 415.992Q577.936 415.575 577.19 415.082Q576.444 414.589 575.751 414.025Q575.057 413.461 574.422 412.832Q573.788 412.203 573.218 411.514Q572.648 410.826 572.148 410.084Q571.649 409.343 571.224 408.556Q570.8 407.77 570.455 406.945Q570.11 406.12 569.848 405.266Q569.581 404.42 569.4 403.552Q569.219 402.683 569.127 401.801Q569.034 400.919 569.03 400.032Q569.027 399.145 569.112 398.262Q569.198 397.379 569.371 396.509Q569.545 395.639 569.805 394.791Q570.065 393.943 570.409 393.126Q570.753 392.308 571.177 391.529C574.081 386.216 578.717 383.643 584.358 382.115Z"/>
	<path fill="#FEFEFE" d="M591.543 389.445C592.412 389.399 593.318 389.396 594.179 389.515C596.01 389.768 597.816 391.215 598.794 392.739C599.633 394.048 599.937 395.636 599.416 397.137C598.749 399.062 597.329 399.799 595.61 400.59C594.494 400.621 593.328 400.684 592.217 400.557C590.745 400.388 589.161 399.143 588.34 397.937C587.47 396.659 587.264 395.253 587.638 393.77C588.206 391.515 589.702 390.631 591.543 389.445Z"/>
	<path fill="#0B080C" d="M434.906 381.56C438.293 381.396 440.929 381.576 444.1 382.867Q444.56 383.051 445.009 383.259Q445.458 383.466 445.897 383.696Q446.335 383.926 446.761 384.178Q447.187 384.43 447.6 384.704Q448.012 384.977 448.41 385.271Q448.809 385.565 449.191 385.879Q449.574 386.193 449.94 386.526Q450.306 386.86 450.655 387.211Q451.003 387.562 451.334 387.931Q451.664 388.3 451.975 388.685Q452.286 389.07 452.577 389.47Q452.868 389.871 453.139 390.285Q453.409 390.7 453.658 391.128Q453.906 391.556 454.133 391.996Q454.36 392.436 454.563 392.887Q454.767 393.338 454.948 393.799Q455.271 394.629 455.509 395.487Q455.748 396.345 455.901 397.222Q456.054 398.099 456.12 398.987Q456.185 399.875 456.162 400.765Q456.14 401.656 456.029 402.539Q455.919 403.423 455.721 404.291Q455.524 405.159 455.242 406.004Q454.959 406.848 454.595 407.661C452.141 413.065 447.839 415.698 442.532 417.734C438.289 418.374 434.636 418.288 430.728 416.307Q430.3 416.086 429.884 415.843Q429.468 415.6 429.065 415.336Q428.662 415.072 428.273 414.788Q427.885 414.504 427.511 414.2Q427.137 413.897 426.779 413.575Q426.421 413.253 426.079 412.912Q425.738 412.572 425.415 412.215Q425.092 411.858 424.787 411.485Q424.482 411.112 424.197 410.724Q423.912 410.336 423.647 409.934Q423.382 409.532 423.137 409.117Q422.893 408.701 422.671 408.274Q422.448 407.847 422.247 407.409Q422.047 406.972 421.868 406.524Q421.69 406.076 421.535 405.62Q421.38 405.164 421.249 404.701Q421.119 404.229 421.014 403.751Q420.909 403.274 420.828 402.791Q420.747 402.309 420.691 401.823Q420.634 401.337 420.603 400.849Q420.572 400.36 420.565 399.871Q420.559 399.382 420.577 398.893Q420.595 398.404 420.639 397.917Q420.682 397.43 420.75 396.945Q420.818 396.461 420.91 395.981Q421.003 395.5 421.12 395.025Q421.237 394.55 421.378 394.082Q421.519 393.613 421.683 393.153Q421.848 392.692 422.036 392.24Q422.224 391.788 422.434 391.347Q422.645 390.905 422.878 390.475Q423.111 390.045 423.365 389.627C426.109 385.142 429.934 382.878 434.906 381.56Z"/>
	<path fill="#FEFEFE" d="M443.569 390.046C444.506 389.921 445.491 389.843 446.437 389.915C448.111 390.042 449.655 391.026 450.647 392.36C451.599 393.64 451.905 395.242 451.627 396.794C451.145 399.481 449.77 400.621 447.574 402.059C446.83 402.187 446.09 402.303 445.331 402.299C443.77 402.291 442.244 401.351 441.262 400.169C440.049 398.709 439.733 396.655 440.051 394.823C440.451 392.52 441.77 391.38 443.569 390.046Z"/>
	<path fill="#090F35" d="M555.906 348.2Q581.324 348.306 606.741 348.021C616.01 357.587 626.095 366.346 635.251 376L634.86 376.52C628.777 373.345 622.139 369.099 615.407 367.552C609.39 366.169 601.091 367.453 594.818 367.508L555.525 367.604C555.53 361.124 555.593 354.674 555.906 348.2Z"/>
	<path fill="#090F35" d="M468.963 347.754C470.235 351.064 469.387 363.046 469.378 367.273C448.892 366.573 428.344 367.647 407.877 366.585Q398.081 372.278 388.751 378.706L388.35 378.773C388.709 376.026 412.405 351.795 416.138 347.967C433.732 347.981 451.376 348.26 468.963 347.754Z"/>
	<path fill="#E0997D" d="M603.139 440.622C607.711 440.118 611.92 440.183 616.202 442.068Q616.702 442.293 617.191 442.542Q617.679 442.791 618.155 443.065Q618.63 443.338 619.092 443.635Q619.553 443.932 619.999 444.251Q620.445 444.57 620.874 444.911Q621.304 445.252 621.716 445.614Q622.128 445.976 622.521 446.359Q622.915 446.741 623.289 447.142Q623.663 447.543 624.016 447.963Q624.37 448.382 624.702 448.818Q625.034 449.255 625.344 449.707Q625.654 450.16 625.941 450.627Q626.229 451.094 626.492 451.575Q626.756 452.056 626.995 452.55Q627.234 453.043 627.449 453.548Q627.663 454.053 627.852 454.568C629.66 459.508 629.554 465.167 627.251 469.931C624.295 476.047 618.951 479.241 612.775 481.368C608.396 481.938 604.384 481.725 600.278 479.958C595.023 477.697 590.613 473.279 588.566 467.914C586.661 462.921 586.971 457.186 589.171 452.339C591.978 446.154 596.974 442.839 603.139 440.622Z"/>
	<path fill="#E0997D" d="M415.396 438.162C419.093 437.699 423.23 438.717 426.478 440.492C431.511 443.243 435.194 448.226 436.733 453.714C438.228 459.043 437.781 464.896 435.03 469.744C431.588 475.81 426.133 478.444 419.659 480.078C414.727 480.266 410.521 479.99 406.211 477.22C401.33 474.081 398.004 468.697 396.965 463.026Q396.866 462.484 396.795 461.938Q396.723 461.393 396.679 460.844Q396.636 460.295 396.62 459.745Q396.604 459.194 396.616 458.644Q396.628 458.093 396.668 457.544Q396.708 456.995 396.775 456.449Q396.843 455.902 396.938 455.36Q397.033 454.818 397.156 454.281Q397.278 453.744 397.427 453.214Q397.577 452.685 397.753 452.163Q397.929 451.641 398.132 451.129Q398.334 450.617 398.562 450.116Q398.79 449.615 399.043 449.126Q399.296 448.637 399.573 448.161Q399.851 447.686 400.152 447.225Q400.453 446.764 400.777 446.319C404.431 441.374 409.468 439.041 415.396 438.162Z"/>
	<path fill="#DC8547" d="M498.185 395.859C499.189 401.404 499.138 407.691 499.627 413.379C501.417 434.185 502.054 455.095 503.575 475.925C513.126 477.028 522.967 477.074 532.418 478.79Q520.486 481.301 508.612 484.072C506.974 484.428 505.17 484.911 503.491 484.922C497.072 484.967 482.212 478.764 475.549 476.366C480.78 458.093 485.464 439.647 490.581 421.337C492.94 412.892 494.955 404.007 498.185 395.859Z"/>
	<path fill="#E0997D" d="M430.696 326.161C483.366 326.808 542.998 316.571 591.551 295.702Q603.248 290.709 614.194 284.234C618.875 281.425 623.649 277.268 628.762 275.405C630.307 274.842 630.874 275.299 632.28 276.016C629.058 286.405 597.195 302.923 587.038 308.288C578.998 312.534 570.32 315.496 561.735 318.434C529.126 329.593 496.735 334.073 462.369 331.693C453.226 331.059 443.821 330.366 435.013 327.664C433.547 327.215 432.187 326.522 430.696 326.161Z"/>
	<path fill="#2F5BB5" d="M385.525 710.752C399.963 732.694 412.354 756.461 425.491 779.222C430.554 787.996 435.464 796.962 441.179 805.333C453.162 796.237 464.347 786.144 475.817 776.427C484.656 768.939 493.959 761.911 502.425 753.999C508.723 754.298 514.922 754.353 521.2 753.63C529.612 761.442 538.736 768.55 547.492 775.978C559.417 786.096 571.283 796.663 583.826 806.005C590.378 797.075 596.048 787.474 602.023 778.155C607.855 769.06 614.001 760.153 619.906 751.1C626.706 740.674 633.365 729.98 640.688 719.915L641.289 720.299C652.148 727.158 664.736 732.397 676.247 738.166Q708.882 754.682 741.706 770.817C753.961 776.742 767.31 782.079 778.644 789.592C785.973 794.45 792.917 800.732 798.547 807.483C805.644 815.993 811.715 826.558 815.805 836.841C817.175 840.285 817.673 845.08 819.729 848.022C822.07 862.759 821.024 878.48 821.007 893.399C820.975 920.691 820.517 948.085 820.92 975.367L739.057 975.494L739.241 935.68C739.248 929.686 739.84 922.869 738.964 916.973C738.764 915.631 738.463 914.919 737.479 913.971C736.366 912.9 734.256 912.264 732.777 912.661C731.48 913.01 730.709 913.847 730.168 915.023C728.708 918.2 729.656 967.71 729.757 975.331L438.766 975.564L345.691 975.474C329.882 975.457 313.589 974.647 297.829 975.625L296.112 975.31C293.185 970.798 297.655 923.006 294.424 913.743C293.889 912.208 293.235 911.258 291.713 910.563C290.308 910.626 289.145 910.794 288.056 911.78C287.002 912.733 286.649 913.693 286.489 915.057C285.727 921.559 286.25 928.625 286.227 935.205L286.026 975.634C276.664 975.027 266.999 975.49 257.602 975.493L204.453 975.524Q204.062 934.066 204.399 892.61C204.432 878.757 203.262 862.25 205.037 848.865C206.24 839.794 209.272 831.086 212.92 822.733Q214.389 819.325 216.065 816.015Q217.741 812.704 219.618 809.502Q221.494 806.301 223.564 803.221Q225.635 800.142 227.89 797.195Q230.146 794.249 232.579 791.447Q235.012 788.645 237.613 785.998Q240.214 783.351 242.973 780.87Q245.732 778.388 248.638 776.081C263.105 764.788 293.09 753.163 310.806 744.9L363.945 720.713C371.146 717.468 378.177 713.624 385.525 710.752Z"/>
	<path fill="#FEFEFE" d="M512.614 888.978C513.938 888.97 515.222 888.979 516.493 889.4C518.698 890.131 520.454 891.791 521.472 893.866C522.477 895.912 522.698 898.344 521.89 900.495C520.892 903.152 519.197 904.447 516.683 905.571C515.168 905.635 513.361 905.723 511.891 905.311C509.76 904.715 507.924 902.998 506.954 901.041C505.998 899.112 505.944 896.823 506.648 894.807C507.732 891.704 509.749 890.316 512.614 888.978Z"/>
	<path fill="#FEFEFE" d="M513.257 779.026C514.703 779.082 515.995 779.199 517.369 779.693C519.536 780.472 521.57 782.129 522.531 784.252C523.387 786.144 523.394 788.308 522.662 790.24C521.563 793.142 519.217 794.476 516.57 795.777C514.711 795.899 512.805 795.856 511.078 795.07Q510.69 794.891 510.321 794.675Q509.952 794.458 509.607 794.207Q509.262 793.955 508.943 793.671Q508.624 793.386 508.334 793.071Q508.045 792.757 507.788 792.415Q507.532 792.073 507.31 791.708Q507.088 791.343 506.903 790.957Q506.719 790.572 506.573 790.17Q506.427 789.766 506.323 789.35Q506.22 788.933 506.161 788.509Q506.101 788.083 506.086 787.655Q506.072 787.226 506.102 786.798Q506.132 786.37 506.206 785.947Q506.281 785.524 506.399 785.112Q506.517 784.699 506.677 784.301Q506.838 783.903 507.039 783.524C508.46 780.885 510.5 779.887 513.257 779.026Z"/>
	<path fill="#FEFEFE" d="M511.537 832.519C513.085 832.437 514.863 832.388 516.37 832.791C518.586 833.384 520.594 834.977 521.728 836.963Q521.926 837.314 522.086 837.683Q522.247 838.052 522.368 838.436Q522.49 838.82 522.572 839.214Q522.653 839.609 522.694 840.009Q522.735 840.41 522.734 840.813Q522.734 841.215 522.692 841.616Q522.65 842.016 522.568 842.41Q522.485 842.804 522.362 843.188C521.328 846.488 519.089 847.819 516.13 849.246C514.695 849.489 513.125 849.514 511.708 849.134C509.565 848.56 507.63 847.132 506.547 845.185Q506.323 844.781 506.143 844.355Q505.962 843.93 505.827 843.488Q505.692 843.046 505.604 842.592Q505.516 842.139 505.476 841.678Q505.436 841.218 505.444 840.756Q505.452 840.294 505.508 839.835Q505.564 839.377 505.668 838.926Q505.772 838.476 505.922 838.039C506.913 835.115 508.905 833.861 511.537 832.519Z"/>
	<path fill="#EF5453" d="M612.018 842.537Q651.013 843.1 690.013 843.069C689.987 852.9 690.208 862.819 689.917 872.641L611.95 872.801L612.018 842.537Z"/>
	<path fill="#FEFEFE" d="M650.103 853.506C651.054 853.568 651.986 853.605 652.899 853.907C654.653 854.488 656.152 855.615 656.957 857.307C657.755 858.985 657.632 860.938 656.959 862.635C655.931 865.23 654.23 866.205 651.792 867.338C650.714 867.223 649.804 867.11 648.772 866.741C647.014 866.113 645.402 864.435 644.704 862.725Q644.584 862.429 644.494 862.122Q644.405 861.815 644.347 861.5Q644.29 861.186 644.264 860.867Q644.239 860.549 644.246 860.229Q644.253 859.909 644.293 859.592Q644.332 859.275 644.404 858.963Q644.476 858.652 644.579 858.349Q644.682 858.047 644.815 857.756C645.913 855.316 647.736 854.47 650.103 853.506Z"/>
	<path fill="#FEFEFE" d="M611.95 872.801L689.917 872.641C689.743 879.256 689.916 885.909 689.943 892.527C689.995 905.092 688.646 914.255 679.366 923.481Q678.652 924.196 677.904 924.874Q677.155 925.553 676.374 926.194Q675.593 926.834 674.782 927.435Q673.97 928.037 673.129 928.597Q672.289 929.157 671.422 929.675Q670.554 930.193 669.662 930.668Q668.771 931.142 667.856 931.572Q666.942 932.002 666.008 932.386Q665.073 932.77 664.121 933.107Q663.169 933.444 662.201 933.734Q661.233 934.023 660.252 934.265Q659.272 934.506 658.28 934.699Q657.288 934.891 656.288 935.035Q655.288 935.178 654.282 935.271Q653.277 935.365 652.267 935.409Q651.258 935.452 650.248 935.446Q649.283 935.439 648.319 935.384Q647.355 935.329 646.396 935.227Q645.436 935.125 644.482 934.976Q643.529 934.826 642.584 934.63Q641.639 934.434 640.704 934.191Q639.77 933.949 638.849 933.661Q637.928 933.372 637.022 933.039Q636.116 932.706 635.228 932.328Q634.34 931.951 633.471 931.53Q632.603 931.109 631.756 930.646Q630.909 930.182 630.086 929.678Q629.263 929.174 628.466 928.629Q627.669 928.085 626.9 927.502Q626.13 926.919 625.391 926.299Q624.651 925.679 623.943 925.023Q623.235 924.367 622.56 923.677C608.742 909.665 611.882 890.848 611.95 872.801Z"/>
	<path fill="#090F35" d="M648.84 889.905C650.977 890.15 652.851 890.305 654.222 892.197C655.026 893.307 655.126 894.39 654.876 895.703C654.461 897.881 652.66 899.057 650.934 900.175Q650.493 900.156 650.052 900.124C648.362 899.984 647.043 899.585 646.011 898.098C645.204 896.933 645.027 895.553 645.35 894.198C645.858 892.06 647.063 891.057 648.84 889.905Z"/>
</svg>
